<svg width="48" height="47" viewBox="0 0 48 47" fill="none" xmlns="http://www.w3.org/2000/svg">
    <path d="M33.613 43.887C45 38.637 49.926 25.253 44.616 13.993l-.093-.195c-.687-1.537-1.05-4.656 2.477-6.282l-.014-.014L20.621 19.66s-1.34.618-.716 1.943c.625 1.325 1.965.707 1.965.707l1.392-.641s4.948-2.282 7.255 2.61c2.307 4.894-2.64 7.175-2.64 7.175L8.805 40.248c6.58 5.832 16.294 7.565 24.807 3.64z" fill="#F0F2F5"/>
    <path d="M1.014 39.498A2.58 2.58 0 0 0 1 39.484c3.526-1.627 3.164-4.745 2.477-6.282l-.093-.195C-1.926 21.747 3 8.363 14.387 3.113 22.9-.813 32.615.92 39.194 6.752l-20.256 9.34s-4.948 2.282-2.64 7.175c2.307 4.893 7.255 2.611 7.255 2.611l1.391-.642s1.34-.618 1.965.708c.625 1.325-.715 1.943-.715 1.943L1.014 39.498z" fill="#161513"/>
    <path d="M33.613 43.887C45 38.637 49.926 25.253 44.616 13.993l-.093-.195c-.687-1.537-1.05-4.656 2.477-6.282l-.014-.014L20.621 19.66s-1.34.618-.716 1.943c.625 1.325 1.965.707 1.965.707l1.392-.641s4.948-2.282 7.255 2.61c2.307 4.894-2.64 7.175-2.64 7.175L8.805 40.248c6.58 5.832 16.294 7.565 24.807 3.64z" stroke="#000"/>
    <path d="M1.014 39.498A2.58 2.58 0 0 0 1 39.484c3.526-1.627 3.164-4.745 2.477-6.282l-.093-.195C-1.926 21.747 3 8.363 14.387 3.113 22.9-.813 32.615.92 39.194 6.752l-20.256 9.34s-4.948 2.282-2.64 7.175c2.307 4.893 7.255 2.611 7.255 2.611l1.391-.642s1.34-.618 1.965.708c.625 1.325-.715 1.943-.715 1.943L1.014 39.498z" stroke="#000"/>
</svg>
